<svg enable-background="new 0 0 140 140" height="512" viewBox="0 0 140 140" width="512" xmlns="http://www.w3.org/2000/svg"><circle cx="70" cy="70" fill="#4da0dc" r="64"/><path d="m132.6787415 82.989006-45.2424927-45.2490196-.0199585-.0205078c-1.5900269-1.9897461-3.7600098-2.7797852-5.6900024-3.1098633-6.3900146-1.1196289-17.1600342-1.5600586-23.4200401.1401367-6.4899902 1.75-7.3999634 13.6298828-7.1999512 22.1699219-1.3900146.7700195-2.4000244 3.2202148-2.4000244 6.1201172 0 2.4399376.7200317 4.5600548 1.7700195 5.629879l2 2c1.3599854 3.6201172 4.0899658 7.5498047 7.0100098 11.0703125v4.6396484l-20.960022 10.8203125s-2.4000244.7797852-4.3599854 3.75c1.4599609 1.6796875 3.0299683 3.2597656 4.7099609 4.7099609l28.2679405 28.268074c.9475098.0415039 1.8980103.0717773 2.8557739.0717773 30.8955689.0000002 56.6757813-21.8925856 62.6787721-51.0107497z" opacity=".1"/><path d="m80.4524918 94.7428665c0-7.4614258 0-14.9233398.0004883-22.3852539-6.9907227-.0004883-13.980957-.0004883-20.9711952 0v22.3852539c1.3828124 12.5209961 19.5878944 12.5209961 20.9707069 0z" fill="#d6b24e"/><g fill="#e2bc5d"><path d="m87.6194839 51.5592728c-.0703125-2.0932617-1.7836914-3.7509766-3.878418-3.7509766h-29.0400428c-.5571289 0-1.0751953.1313477-1.550293.3432617v11.3486328h-1.2802734c-.0073242.46875-.0947266.7563477-.3027344.8051758v6.0126953c0 5.2680664 4.9458008 12.1298828 9.7084961 17.5166016 4.6196327 5.2250977 12.7539101 5.2250977 17.373539 0 4.7626953-5.387207 9.7089844-12.2490234 9.7089844-17.5161133v-8.3344727c-.4555664-2.161621-.6699219-4.3598632-.7392579-6.4248046z"/><ellipse cx="52.03" cy="63.041" rx="3.327" ry="6.37"/><ellipse cx="87.14" cy="63.041" rx="3.327" ry="6.37"/></g><path d="m51.7338562 65.8000259s-3.7132683-28.27668 6.5703621-31.0541687c6.2628365-1.6915207 17.0293159-1.2570267 23.4196358-.1398201 3.913269.6841507 8.8012772 3.2281456 7.9036789 13.7854805s-1.2688293 17.4085083-1.2688293 17.4085083h-1.0258331s-.3981323-8.2493668-1.8086395-14.8209c0 0 .7693634-2.7963943-8.9759827-.6990967s-18.7213402-.9787407-18.7213402-.9787407-4.733429-1.1059952-4.4798508 6.013855c.0505371 1.4189644-.0645142 2.8346977-.2505608 4.2423172-.3353233 2.5370369-.7538681 5.9798927-.5932693 6.2425652z" fill="#19282f"/><path d="m101.4026871 97.1984329-20.9497071-10.8222656-.2954102 2.8813477c-.3730469 3.6328125-2.7241211 6.762207-6.1098633 8.1308594l-.6923828.2797852c-2.184082.8833008-4.612793.9545898-6.8452148.2011719-3.6054726-1.2163086-6.1884804-4.3999023-6.635746-8.1787109l-.3925781-3.3144531-20.9599609 10.8222654s-2.3979492.7783203-4.3540039 3.7548828c6.4995117 7.4980469 15.3022461 12.9355469 25.3139648 15.1962891 3.0029297.6826172 6.1108437 1.0712891 9.291996 1.15625l.015625.0117188h1.7563477c.199707-.0107422.3999023-.0107422.5996094-.0107422 3.1865234-.0844727 6.2998047-.4736328 9.3076172-1.1572266 10.0014648-2.2607422 18.8041992-7.6982422 25.3032227-15.1962891-1.9555665-2.9765625-4.3535157-3.7548828-4.3535157-3.7548828z" fill="#467082"/><circle cx="96.243" cy="102.799" fill="#ededed" r="14.519"/><g fill="#344d5b"><path d="m91.4580917 98.1419678c-.3180923-.4401398-.933609-.5391235-1.3742294-.220314l-5.6381531 4.0799026c-.2556229.1849976-.4069824.4814606-.4069824.7971497s.1513596.6121521.4069824.797142l5.6381531 4.0799026c.1744232.1261368.376236.1869125.5761185.1869125.3051147 0 .6059113-.1412659.798111-.4072189.3185654-.4401321.2200623-1.0554123-.2200699-1.3739777l-4.5368576-3.2827606 4.5368576-3.2827606c.4401321-.3185653.5386352-.9338455.2200698-1.3739776z"/><path d="m108.0395737 102.0015564-5.6381607-4.0799026c-.4406128-.3188095-1.0561295-.2198257-1.3742218.220314-.3185654.4401321-.2200623 1.0554123.2200699 1.3739777l4.5368576 3.2827606-4.5368576 3.2827606c-.4401321.3185654-.5386353.9338455-.2200699 1.3739777.1921997.2659531.4929962.4072189.798111.4072189.1998825 0 .4016953-.0607758.5761108-.1869125l5.6381607-4.0799026c.2556229-.1849899.4069824-.4814529.4069824-.797142s-.1513596-.6121522-.4069824-.7971498z"/><path d="m98.7731781 96.261055c-.5064392-.1962814-1.0763092.0554962-1.2728348.5624237l-4.351387 11.240036c-.1960373.5066833.0557404 1.0765533.5626678 1.2728348.1167603.0454102.2368851.0665512.3550873.0665512.3944855 0 .7668686-.2388077.9177475-.6289673l4.351387-11.240036c.1960373-.5066833-.0557403-1.0765533-.5626678-1.2728424z"/></g></svg>